<mxfile host="app.diagrams.net" agent="Mozilla/5.0 (X11; Ubuntu; Linux x86_64; rv:136.0) Gecko/20100101 Firefox/136.0" version="26.1.1">
  <diagram name="Page-1" id="nucE8_vkFdb-QvGGlEXp">
    <mxGraphModel dx="1054" dy="448" grid="1" gridSize="10" guides="1" tooltips="1" connect="1" arrows="1" fold="1" page="1" pageScale="1" pageWidth="850" pageHeight="1100" math="0" shadow="0">
      <root>
        <mxCell id="0" />
        <mxCell id="1" parent="0" />
        <mxCell id="IfHxuHHCho49-bMtk_uL-1" value="" style="ellipse;whiteSpace=wrap;html=1;aspect=fixed;fillColor=#dae8fc;strokeColor=#6c8ebf;" vertex="1" parent="1">
          <mxGeometry x="100" y="58.75" width="212.5" height="212.5" as="geometry" />
        </mxCell>
        <mxCell id="IfHxuHHCho49-bMtk_uL-14" value="" style="whiteSpace=wrap;html=1;aspect=fixed;fillColor=#dae8fc;strokeColor=#6c8ebf;" vertex="1" parent="1">
          <mxGeometry x="470" y="90" width="150" height="150" as="geometry" />
        </mxCell>
        <mxCell id="IfHxuHHCho49-bMtk_uL-15" value="" style="endArrow=none;html=1;rounded=0;entryX=1;entryY=0;entryDx=0;entryDy=0;" edge="1" parent="1" target="IfHxuHHCho49-bMtk_uL-14">
          <mxGeometry width="50" height="50" relative="1" as="geometry">
            <mxPoint x="470" y="240" as="sourcePoint" />
            <mxPoint x="520" y="190" as="targetPoint" />
          </mxGeometry>
        </mxCell>
        <mxCell id="IfHxuHHCho49-bMtk_uL-16" value="" style="endArrow=none;html=1;rounded=0;entryX=1;entryY=1;entryDx=0;entryDy=0;exitX=0;exitY=0;exitDx=0;exitDy=0;" edge="1" parent="1" source="IfHxuHHCho49-bMtk_uL-14" target="IfHxuHHCho49-bMtk_uL-14">
          <mxGeometry width="50" height="50" relative="1" as="geometry">
            <mxPoint x="480" y="250" as="sourcePoint" />
            <mxPoint x="630" y="100" as="targetPoint" />
          </mxGeometry>
        </mxCell>
        <mxCell id="IfHxuHHCho49-bMtk_uL-17" value="" style="endArrow=none;html=1;rounded=0;entryX=1;entryY=0;entryDx=0;entryDy=0;" edge="1" parent="1" target="IfHxuHHCho49-bMtk_uL-1">
          <mxGeometry width="50" height="50" relative="1" as="geometry">
            <mxPoint x="130" y="240" as="sourcePoint" />
            <mxPoint x="280" y="90" as="targetPoint" />
          </mxGeometry>
        </mxCell>
        <mxCell id="IfHxuHHCho49-bMtk_uL-18" value="" style="endArrow=none;html=1;rounded=0;entryX=1;entryY=1;entryDx=0;entryDy=0;exitX=0;exitY=0;exitDx=0;exitDy=0;" edge="1" parent="1" source="IfHxuHHCho49-bMtk_uL-1">
          <mxGeometry width="50" height="50" relative="1" as="geometry">
            <mxPoint x="130" y="90" as="sourcePoint" />
            <mxPoint x="280" y="240" as="targetPoint" />
          </mxGeometry>
        </mxCell>
        <mxCell id="IfHxuHHCho49-bMtk_uL-21" value="" style="verticalLabelPosition=bottom;verticalAlign=top;html=1;shape=mxgraph.basic.pie;startAngle=0.125;endAngle=0.3773752705451854;rotation=0;fillColor=#f8cecc;strokeColor=#b85450;" vertex="1" parent="1">
          <mxGeometry x="103.75" y="60.63" width="208.75" height="208.75" as="geometry" />
        </mxCell>
        <mxCell id="IfHxuHHCho49-bMtk_uL-22" value="" style="verticalLabelPosition=bottom;verticalAlign=top;html=1;shape=mxgraph.basic.acute_triangle;dx=0.5;rotation=-90;fillColor=#f8cecc;strokeColor=#b85450;" vertex="1" parent="1">
          <mxGeometry x="508.75" y="128.75" width="150" height="72.5" as="geometry" />
        </mxCell>
        <mxCell id="IfHxuHHCho49-bMtk_uL-28" value="&lt;font data-font-src=&quot;https://www.cssfontstack.com/arial&quot; face=&quot;Arial&quot; style=&quot;font-size: 24px;&quot;&gt;φ&lt;/font&gt;" style="text;html=1;align=center;verticalAlign=middle;resizable=0;points=[];autosize=1;strokeColor=none;fillColor=none;" vertex="1" parent="1">
          <mxGeometry x="360" y="50" width="40" height="40" as="geometry" />
        </mxCell>
        <mxCell id="IfHxuHHCho49-bMtk_uL-33" value="" style="endArrow=classic;html=1;rounded=0;" edge="1" parent="1">
          <mxGeometry width="50" height="50" relative="1" as="geometry">
            <mxPoint x="310" y="100" as="sourcePoint" />
            <mxPoint x="450" y="100" as="targetPoint" />
          </mxGeometry>
        </mxCell>
        <mxCell id="IfHxuHHCho49-bMtk_uL-34" value="" style="endArrow=classic;html=1;rounded=0;" edge="1" parent="1">
          <mxGeometry width="50" height="50" relative="1" as="geometry">
            <mxPoint x="450" y="230" as="sourcePoint" />
            <mxPoint x="312.5" y="230" as="targetPoint" />
          </mxGeometry>
        </mxCell>
        <mxCell id="IfHxuHHCho49-bMtk_uL-35" value="&lt;font data-font-src=&quot;https://www.cssfontstack.com/arial&quot; face=&quot;Arial&quot; style=&quot;font-size: 24px;&quot;&gt;φ&lt;/font&gt;&lt;font style=&quot;font-size: 14px;&quot; data-font-src=&quot;https://www.cssfontstack.com/arial&quot; face=&quot;Arial&quot;&gt;&lt;sup&gt;-1&lt;/sup&gt;&lt;/font&gt;" style="text;html=1;align=center;verticalAlign=middle;resizable=0;points=[];autosize=1;strokeColor=none;fillColor=none;" vertex="1" parent="1">
          <mxGeometry x="360" y="180" width="50" height="40" as="geometry" />
        </mxCell>
      </root>
    </mxGraphModel>
  </diagram>
</mxfile>
